<?xml version="1.0" ?><!DOCTYPE svg  PUBLIC '-//W3C//DTD SVG 1.1//EN'  'http://www.w3.org/Graphics/SVG/1.1/DTD/svg11.dtd'><svg xmlns="http://www.w3.org/2000/svg" xmlns:xlink="http://www.w3.org/1999/xlink" xmlns:serif="http://www.serif.com/" width="100%" height="100%" viewBox="0 0 64 64" version="1.1" xml:space="preserve" style="fill-rule:evenodd;clip-rule:evenodd;stroke-linejoin:round;stroke-miterlimit:2;"><g transform="matrix(1,0,0,1,-588,-328)"><g id="Artboard1" transform="matrix(1,0,0,1,420,0)"><rect x="0" y="0" width="400" height="400" style="fill:none;"/><g><g transform="matrix(1.1,0,0,1,-20,0)"><path d="M220.909,336C220.909,334.674 220.43,333.402 219.578,332.464C218.725,331.527 217.569,331 216.364,331C208.757,331 191.243,331 183.636,331C182.431,331 181.275,331.527 180.422,332.464C179.57,333.402 179.091,334.674 179.091,336C179.091,346.308 179.091,373.692 179.091,384C179.091,385.326 179.57,386.598 180.422,387.536C181.275,388.473 182.431,389 183.636,389C191.243,389 208.757,389 216.364,389C217.569,389 218.725,388.473 219.578,387.536C220.43,386.598 220.909,385.326 220.909,384C220.909,373.692 220.909,346.308 220.909,336ZM219.091,336L219.091,384C219.091,384.796 218.804,385.559 218.292,386.121C217.781,386.684 217.087,387 216.364,387C208.757,387 191.243,387 183.636,387C182.913,387 182.219,386.684 181.708,386.121C181.196,385.559 180.909,384.796 180.909,384C180.909,373.692 180.909,346.308 180.909,336C180.909,335.204 181.196,334.441 181.708,333.879C182.219,333.316 182.913,333 183.636,333C191.243,333 208.757,333 216.364,333C217.087,333 217.781,333.316 218.292,333.879C218.804,334.441 219.091,335.204 219.091,336Z"/></g><g transform="matrix(1.01493,0,0,1,-2.73134,2)"><path d="M217.485,336C217.485,335.448 217.044,335 216.5,335L183,335C182.456,335 182.015,335.448 182.015,336L182.015,345C182.015,345.552 182.456,346 183,346L216.5,346C217.044,346 217.485,345.552 217.485,345L217.485,336ZM215.515,337L215.515,344C215.515,344 183.985,344 183.985,344C183.985,344 183.985,337 183.985,337L215.515,337Z"/></g><g transform="matrix(0.179104,0,0,0.666667,150.224,129)"><path d="M222.083,336C222.083,335.172 219.584,334.5 216.5,334.5L183,334.5C179.916,334.5 177.417,335.172 177.417,336L177.417,345C177.417,345.828 179.916,346.5 183,346.5L216.5,346.5C219.584,346.5 222.083,345.828 222.083,345L222.083,336ZM210.917,337.5L210.917,343.5C210.917,343.5 188.583,343.5 188.583,343.5C188.583,343.5 188.583,337.5 188.583,337.5L210.917,337.5Z"/></g><g transform="matrix(0.179104,0,0,0.666667,150.224,139)"><path d="M222.083,336C222.083,335.172 219.584,334.5 216.5,334.5L183,334.5C179.916,334.5 177.417,335.172 177.417,336L177.417,345C177.417,345.828 179.916,346.5 183,346.5L216.5,346.5C219.584,346.5 222.083,345.828 222.083,345L222.083,336ZM210.917,337.5L210.917,343.5C210.917,343.5 188.583,343.5 188.583,343.5C188.583,343.5 188.583,337.5 188.583,337.5L210.917,337.5Z"/></g><g transform="matrix(0.179104,0,0,0.666667,150.224,149)"><path d="M222.083,342L222.083,339C222.083,336.515 214.584,334.5 205.333,334.5L194.167,334.5C184.916,334.5 177.417,336.515 177.417,339L177.417,342C177.417,344.485 184.916,346.5 194.167,346.5L205.333,346.5C214.584,346.5 222.083,344.485 222.083,342ZM210.917,339L210.917,342C210.917,342.828 208.417,343.5 205.334,343.5C205.333,343.5 194.167,343.5 194.167,343.5C191.083,343.5 188.583,342.828 188.583,342C188.583,342 188.583,339 188.583,339C188.583,338.172 191.083,337.5 194.166,337.5C194.167,337.5 205.333,337.5 205.333,337.5C208.417,337.5 210.917,338.172 210.917,339Z"/></g><g transform="matrix(0.179104,0,0,0.666667,160.224,129)"><path d="M222.083,336C222.083,335.172 219.584,334.5 216.5,334.5L183,334.5C179.916,334.5 177.417,335.172 177.417,336L177.417,345C177.417,345.828 179.916,346.5 183,346.5L216.5,346.5C219.584,346.5 222.083,345.828 222.083,345L222.083,336ZM210.917,337.5L210.917,343.5C210.917,343.5 188.583,343.5 188.583,343.5C188.583,343.5 188.583,337.5 188.583,337.5L210.917,337.5Z"/></g><g transform="matrix(0.179104,0,0,0.666667,160.224,139)"><path d="M222.083,336C222.083,335.172 219.584,334.5 216.5,334.5L183,334.5C179.916,334.5 177.417,335.172 177.417,336L177.417,345C177.417,345.828 179.916,346.5 183,346.5L216.5,346.5C219.584,346.5 222.083,345.828 222.083,345L222.083,336ZM210.917,337.5L210.917,343.5C210.917,343.5 188.583,343.5 188.583,343.5C188.583,343.5 188.583,337.5 188.583,337.5L210.917,337.5Z"/></g><g transform="matrix(0.477612,0,0,0.666667,105.597,149)"><path d="M218.594,342L218.594,339C218.594,336.515 215.782,334.5 212.313,334.5L187.187,334.5C183.718,334.5 180.906,336.515 180.906,339L180.906,342C180.906,344.485 183.718,346.5 187.187,346.5L212.313,346.5C215.782,346.5 218.594,344.485 218.594,342ZM214.406,339L214.406,342C214.406,342.828 213.469,343.5 212.313,343.5C212.312,343.5 187.188,343.5 187.188,343.5C186.031,343.5 185.094,342.828 185.094,342C185.094,342 185.094,339 185.094,339C185.094,338.172 186.031,337.5 187.187,337.5C187.188,337.5 212.312,337.5 212.312,337.5C213.469,337.5 214.406,338.172 214.406,339Z"/></g><g transform="matrix(0.179104,0,0,0.666667,170.224,129)"><path d="M222.083,336C222.083,335.172 219.584,334.5 216.5,334.5L183,334.5C179.916,334.5 177.417,335.172 177.417,336L177.417,345C177.417,345.828 179.916,346.5 183,346.5L216.5,346.5C219.584,346.5 222.083,345.828 222.083,345L222.083,336ZM210.917,337.5L210.917,343.5C210.917,343.5 188.583,343.5 188.583,343.5C188.583,343.5 188.583,337.5 188.583,337.5L210.917,337.5Z"/></g><g transform="matrix(0.179104,0,0,0.666667,170.224,139)"><path d="M222.083,336C222.083,335.172 219.584,334.5 216.5,334.5L183,334.5C179.916,334.5 177.417,335.172 177.417,336L177.417,345C177.417,345.828 179.916,346.5 183,346.5L216.5,346.5C219.584,346.5 222.083,345.828 222.083,345L222.083,336ZM210.917,337.5L210.917,343.5C210.917,343.5 188.583,343.5 188.583,343.5C188.583,343.5 188.583,337.5 188.583,337.5L210.917,337.5Z"/></g><g transform="matrix(0.119403,0,0,1.33333,191.149,-95)"><path d="M199.75,335.25C185.874,335.25 174.625,336.257 174.625,337.5L174.625,343.5C174.625,344.743 185.874,345.75 199.75,345.75C213.626,345.75 224.875,344.743 224.875,343.5L224.875,337.5C224.875,336.257 213.626,335.25 199.75,335.25M199.75,344.25C195.125,344.25 191.375,343.914 191.375,343.5C191.375,343.5 191.375,337.5 191.375,337.5C191.375,337.086 195.125,336.75 199.75,336.75C204.375,336.75 208.125,337.086 208.125,337.5L208.125,343.5C208.125,343.914 204.375,344.25 199.75,344.25Z"/></g><g transform="matrix(0.119403,0,0,1.11111,191.149,-4.33333)"><path d="M199.75,335.1C193.086,335.1 186.696,335.384 181.984,335.891C177.272,336.397 174.625,337.084 174.625,337.8C174.625,339.369 174.625,341.631 174.625,343.2C174.625,343.916 177.272,344.603 181.984,345.109C186.696,345.616 193.086,345.9 199.75,345.9C206.414,345.9 212.804,345.616 217.516,345.109C222.228,344.603 224.875,343.916 224.875,343.2L224.875,337.8C224.875,337.084 222.228,336.397 217.516,335.891C212.804,335.384 206.414,335.1 199.75,335.1M199.75,344.1C197.529,344.1 195.399,344.005 193.828,343.836C192.257,343.668 191.375,343.439 191.375,343.2L191.375,337.8C191.375,337.561 192.257,337.332 193.828,337.164C195.399,336.995 197.529,336.9 199.75,336.9C201.971,336.9 204.101,336.995 205.672,337.164C207.243,337.332 208.125,337.561 208.125,337.8L208.125,343.2C208.125,343.439 207.243,343.668 205.672,343.836C204.101,344.005 201.971,344.1 199.75,344.1Z"/></g></g></g></g></svg>